<svg xmlns="http://www.w3.org/2000/svg" viewBox="0 0 400 50" fill="white">
  <!-- B (with thick double-bump style) -->
  <path d="M0 2h6v46H0V2zm6 0h14a14 14 0 0 1 0 20H6V2zm0 26h16a12 12 0 0 1 0 20H6V28zM0 2h4v4H0zm0 18h4v8H0zm0 22h4v4H0z"/>
  <rect x="0" y="2" width="6" height="46" rx="1"/>
  <rect x="6" y="2" width="24" height="6" rx="1"/>
  <rect x="6" y="22" width="24" height="6" rx="1"/>
  <rect x="6" y="42" width="26" height="6" rx="1"/>
  <rect x="26" y="6" width="6" height="18" rx="3"/>
  <rect x="28" y="26" width="6" height="18" rx="3"/>

  <!-- 2 -->
  <g transform="translate(52,0)">
    <rect x="0" y="2" width="30" height="6" rx="3"/>
    <rect x="24" y="2" width="6" height="22" rx="1"/>
    <rect x="0" y="22" width="30" height="6" rx="1"/>
    <rect x="0" y="26" width="6" height="22" rx="1"/>
    <rect x="0" y="42" width="30" height="6" rx="3"/>
  </g>

  <!-- V -->
  <g transform="translate(100,0)">
    <polygon points="0,2 8,2 28,42 20,48"/>
    <polygon points="48,2 40,2 20,42 28,48"/>
  </g>

  <!-- I -->
  <g transform="translate(166,0)">
    <rect x="0" y="2" width="6" height="46" rx="1"/>
  </g>

  <!-- B (same as first) -->
  <g transform="translate(190,0)">
    <rect x="0" y="2" width="6" height="46" rx="1"/>
    <rect x="6" y="2" width="24" height="6" rx="1"/>
    <rect x="6" y="22" width="24" height="6" rx="1"/>
    <rect x="6" y="42" width="26" height="6" rx="1"/>
    <rect x="26" y="6" width="6" height="18" rx="3"/>
    <rect x="28" y="26" width="6" height="18" rx="3"/>
  </g>

  <!-- E -->
  <g transform="translate(242,0)">
    <rect x="0" y="2" width="6" height="46" rx="1"/>
    <rect x="6" y="2" width="28" height="6" rx="1"/>
    <rect x="6" y="22" width="22" height="6" rx="1"/>
    <rect x="6" y="42" width="28" height="6" rx="1"/>
  </g>
</svg>
